<svg xmlns="http://www.w3.org/2000/svg" xmlns:xlink="http://www.w3.org/1999/xlink" width="895" zoomAndPan="magnify" viewBox="0 0 671.25 147.750002" height="197" preserveAspectRatio="xMidYMid meet" version="1.0"><defs><clipPath id="1e7b71d195"><path d="M 0.191406 3 L 57 3 L 57 61 L 0.191406 61 Z M 0.191406 3 " clip-rule="nonzero"/></clipPath><clipPath id="d13d4185e1"><path d="M 11 0 L 670.308594 0 L 670.308594 146 L 11 146 Z M 11 0 " clip-rule="nonzero"/></clipPath><clipPath id="c6640ad3f7"><path d="M 127 73 L 174 73 L 174 147.464844 L 127 147.464844 Z M 127 73 " clip-rule="nonzero"/></clipPath><clipPath id="ef4d347094"><path d="M 180 73 L 228 73 L 228 147.464844 L 180 147.464844 Z M 180 73 " clip-rule="nonzero"/></clipPath><clipPath id="c26aec4487"><path d="M 406 72 L 450 72 L 450 147.464844 L 406 147.464844 Z M 406 72 " clip-rule="nonzero"/></clipPath></defs><g clip-path="url(#1e7b71d195)"><path fill="#fff200" d="M 26.382812 60.695312 L 30.816406 60.695312 L 30.675781 46.589844 L 44.226562 50.046875 L 42.707031 44.792969 L 56.878906 32.570312 C 57.210938 31.851562 53.910156 32.167969 53.148438 31.277344 C 52.132812 30.125 55.835938 23.628906 55.53125 23.410156 C 55.273438 23.175781 48.046875 25.464844 47.683594 25.15625 C 47.21875 24.707031 45.996094 20.445312 45.679688 20.246094 C 45.433594 20.023438 38.53125 27.371094 37.3125 26.539062 C 35.769531 25.515625 39.238281 12.113281 38.523438 11.8125 L 34.339844 13.300781 C 33.546875 13.367188 30.398438 6.628906 28.601562 3.445312 L 28.597656 3.453125 L 28.59375 3.445312 C 26.796875 6.628906 23.652344 13.367188 22.855469 13.300781 L 18.671875 11.8125 C 17.957031 12.113281 21.425781 25.515625 19.882812 26.539062 C 18.667969 27.371094 11.765625 20.023438 11.515625 20.246094 C 11.203125 20.445312 9.976562 24.707031 9.511719 25.15625 C 9.148438 25.464844 1.925781 23.175781 1.664062 23.410156 C 1.359375 23.628906 5.0625 30.125 4.050781 31.277344 C 3.285156 32.167969 -0.015625 31.851562 0.320312 32.570312 L 14.492188 44.792969 L 12.96875 50.046875 L 26.519531 46.589844 L 26.382812 60.695312 " fill-opacity="1" fill-rule="evenodd"/></g><g clip-path="url(#d13d4185e1)"><path fill="#fff200" d="M 39.140625 116.207031 L 39.140625 145.542969 L 58.636719 145.542969 L 58.636719 99.390625 C 52.929688 99.390625 46.554688 99.21875 40.585938 99.21875 L 108.957031 26.496094 L 151.25 60.84375 L 151.25 60.929688 L 151.355469 60.929688 L 151.632812 61.15625 L 151.730469 60.929688 L 612.96875 60.929688 L 612.96875 144.78125 L 621.886719 144.78125 L 621.886719 129.859375 L 644.457031 129.859375 L 644.457031 144.78125 L 653.378906 144.78125 L 653.378906 60.929688 L 670.207031 60.929688 L 670.207031 41.433594 L 653.378906 41.433594 L 653.378906 12.304688 L 644.457031 12.304688 L 644.457031 26.308594 L 621.886719 26.308594 L 621.886719 12.304688 L 612.96875 12.304688 L 612.96875 41.433594 L 158.273438 41.433594 L 107.628906 0.300781 L 107.59375 0.339844 L 107.144531 -0.0390625 L 11.449219 101.742188 L 11.464844 116.207031 Z M 621.886719 60.929688 L 644.457031 60.929688 L 644.457031 70.265625 L 621.886719 70.265625 Z M 644.457031 41.433594 L 621.886719 41.433594 L 621.886719 31.941406 L 644.457031 31.941406 Z M 644.457031 124.226562 L 644.457031 111.609375 L 621.886719 111.609375 L 621.886719 124.226562 Z M 644.457031 105.976562 L 644.457031 94.152344 L 621.886719 94.152344 L 621.886719 105.976562 Z M 644.457031 88.519531 L 644.457031 75.898438 L 621.886719 75.898438 L 621.886719 88.519531 L 644.457031 88.519531 " fill-opacity="1" fill-rule="evenodd"/></g><path fill="#fff200" d="M 73.941406 145.976562 L 73.941406 75.363281 L 98.648438 75.363281 C 104.515625 75.363281 109.25 76.742188 112.855469 79.5 C 116.460938 82.253906 118.4375 86.777344 118.792969 93.070312 C 118.792969 97.59375 118.101562 101.339844 116.726562 104.308594 C 115.347656 107.277344 112.996094 109.503906 109.675781 110.988281 C 112.289062 111.695312 114.339844 112.789062 115.824219 114.277344 C 117.308594 115.761719 118.050781 117.632812 118.050781 119.894531 L 118.792969 137.074219 C 118.792969 139.6875 119.109375 141.453125 119.746094 142.375 C 120.382812 143.292969 121.054688 143.75 121.761719 143.75 L 121.761719 145.976562 L 106.703125 145.976562 C 104.515625 145.976562 103.101562 145.644531 102.464844 144.972656 C 101.828125 144.300781 101.511719 142.65625 101.511719 140.039062 L 101.511719 125.304688 C 101.511719 122.96875 101.050781 121.238281 100.132812 120.109375 C 99.210938 118.976562 97.480469 118.410156 94.9375 118.410156 L 91.011719 118.410156 L 91.011719 145.976562 Z M 91.011719 105.898438 L 94.9375 105.898438 C 96.5625 105.898438 98.0625 105.226562 99.441406 103.886719 C 100.820312 102.542969 101.511719 100.351562 101.511719 97.3125 L 101.511719 95.296875 C 100.804688 91.195312 99.546875 88.8125 97.746094 88.140625 C 95.941406 87.46875 93.699219 87.132812 91.011719 87.132812 L 91.011719 105.898438 " fill-opacity="1" fill-rule="nonzero"/><g clip-path="url(#c6640ad3f7)"><path fill="#fff200" d="M 127.378906 124.5625 L 127.378906 93.070312 C 127.378906 86 129.640625 81 134.167969 78.066406 C 138.691406 75.132812 144.167969 73.667969 150.601562 73.667969 C 151.449219 73.667969 152.316406 73.703125 153.199219 73.773438 C 154.082031 73.84375 154.949219 73.914062 155.796875 73.984375 C 160.320312 74.621094 164.4375 76.351562 168.148438 79.179688 C 171.859375 82.007812 173.714844 86.636719 173.714844 93.070312 L 173.714844 124.5625 C 173.714844 131.558594 171.859375 137.105469 168.148438 141.207031 C 164.4375 145.304688 158.339844 147.355469 149.859375 147.355469 C 141.234375 147.355469 135.332031 145.042969 132.152344 140.410156 C 128.96875 135.78125 127.378906 130.5 127.378906 124.5625 Z M 144.449219 92.328125 L 144.449219 128.273438 C 144.449219 130.25 145.070312 131.753906 146.304688 132.777344 C 147.542969 133.800781 148.902344 134.316406 150.386719 134.316406 C 150.457031 134.316406 150.511719 134.316406 150.546875 134.316406 C 150.582031 134.316406 150.636719 134.316406 150.707031 134.316406 C 152.121094 134.246094 153.425781 133.714844 154.628906 132.726562 C 155.832031 131.734375 156.433594 130.25 156.433594 128.273438 L 156.433594 92.328125 C 156.433594 90.347656 155.832031 88.863281 154.628906 87.875 C 153.425781 86.882812 152.121094 86.355469 150.707031 86.285156 C 150.636719 86.285156 150.582031 86.285156 150.546875 86.285156 C 150.511719 86.285156 150.457031 86.285156 150.386719 86.285156 C 148.902344 86.285156 147.542969 86.777344 146.304688 87.769531 C 145.070312 88.757812 144.449219 90.277344 144.449219 92.328125 " fill-opacity="1" fill-rule="nonzero"/></g><g clip-path="url(#ef4d347094)"><path fill="#fff200" d="M 180.816406 124.5625 L 180.816406 93.070312 C 180.816406 86 183.078125 81 187.605469 78.066406 C 192.128906 75.132812 197.605469 73.667969 204.039062 73.667969 C 204.886719 73.667969 205.75 73.703125 206.636719 73.773438 C 207.519531 73.84375 208.382812 73.914062 209.230469 73.984375 C 213.757812 74.621094 217.875 76.351562 221.585938 79.179688 C 225.296875 82.007812 227.152344 86.636719 227.152344 93.070312 L 227.152344 124.5625 C 227.152344 131.558594 225.296875 137.105469 221.585938 141.207031 C 217.875 145.304688 211.777344 147.355469 203.292969 147.355469 C 194.671875 147.355469 188.769531 145.042969 185.589844 140.410156 C 182.40625 135.78125 180.816406 130.5 180.816406 124.5625 Z M 197.886719 92.328125 L 197.886719 128.273438 C 197.886719 130.25 198.507812 131.753906 199.742188 132.777344 C 200.980469 133.800781 202.339844 134.316406 203.824219 134.316406 C 203.894531 134.316406 203.949219 134.316406 203.984375 134.316406 C 204.019531 134.316406 204.074219 134.316406 204.144531 134.316406 C 205.558594 134.246094 206.863281 133.714844 208.066406 132.726562 C 209.269531 131.734375 209.867188 130.25 209.867188 128.273438 L 209.867188 92.328125 C 209.867188 90.347656 209.269531 88.863281 208.066406 87.875 C 206.863281 86.882812 205.558594 86.355469 204.144531 86.285156 C 204.074219 86.285156 204.019531 86.285156 203.984375 86.285156 C 203.949219 86.285156 203.894531 86.285156 203.824219 86.285156 C 202.339844 86.285156 200.980469 86.777344 199.742188 87.769531 C 198.507812 88.757812 197.886719 90.277344 197.886719 92.328125 " fill-opacity="1" fill-rule="nonzero"/></g><path fill="#fff200" d="M 234.890625 145.976562 L 234.890625 75.363281 L 274.226562 75.363281 L 274.226562 88.617188 L 251.855469 88.617188 L 251.855469 101.445312 L 272 101.445312 L 272 115.441406 L 251.855469 115.441406 L 251.855469 145.976562 L 234.890625 145.976562 " fill-opacity="1" fill-rule="nonzero"/><path fill="#fff200" d="M 282.390625 145.976562 L 282.390625 75.363281 L 306.246094 75.363281 L 314.410156 117.667969 L 323.210938 75.363281 L 346.324219 75.363281 L 346.324219 145.976562 L 330.84375 145.976562 L 332.328125 91.585938 L 320.242188 145.976562 L 308.472656 145.976562 L 296.386719 91.585938 L 298.613281 145.976562 L 282.390625 145.976562 " fill-opacity="1" fill-rule="nonzero"/><path fill="#fff200" d="M 352.6875 145.976562 L 368.90625 75.363281 L 388.3125 75.363281 L 404.109375 145.976562 L 386.828125 145.976562 L 384.601562 131.980469 L 371.875 131.980469 L 369.648438 145.976562 Z M 373.359375 119.152344 L 382.375 119.152344 L 378.027344 87.875 Z M 373.359375 119.152344 " fill-opacity="1" fill-rule="nonzero"/><g clip-path="url(#c26aec4487)"><path fill="#fff200" d="M 406.652344 121.378906 L 422.132812 121.378906 C 422.132812 121.519531 422.132812 121.664062 422.132812 121.804688 C 422.132812 121.945312 422.132812 122.085938 422.132812 122.226562 C 422.0625 122.367188 422.027344 122.527344 422.027344 122.703125 C 422.027344 122.882812 422.027344 123.039062 422.027344 123.183594 C 421.957031 123.464844 421.902344 123.75 421.867188 124.03125 C 421.832031 124.3125 421.816406 124.5625 421.816406 124.773438 C 421.816406 127.953125 422.453125 130.355469 423.722656 131.980469 C 424.996094 133.609375 426.410156 134.457031 427.964844 134.527344 C 428.035156 134.527344 428.089844 134.527344 428.125 134.527344 C 428.160156 134.527344 428.210938 134.527344 428.28125 134.527344 C 428.421875 134.527344 428.582031 134.527344 428.761719 134.527344 C 428.9375 134.527344 429.09375 134.492188 429.238281 134.421875 C 430.507812 134.140625 431.65625 133.414062 432.683594 132.246094 C 433.707031 131.082031 434.21875 129.507812 434.21875 127.53125 C 434.21875 125.480469 433.53125 123.710938 432.152344 122.226562 C 430.773438 120.742188 429.0625 119.328125 427.011719 117.988281 C 426.019531 117.28125 424.996094 116.609375 423.9375 115.972656 C 422.875 115.335938 421.816406 114.628906 420.753906 113.851562 C 417.363281 111.660156 414.253906 108.9375 411.425781 105.6875 C 408.597656 102.4375 407.183594 98.054688 407.183594 92.539062 C 407.183594 92.46875 407.203125 92.398438 407.234375 92.328125 C 407.273438 92.257812 407.289062 92.152344 407.289062 92.007812 C 407.289062 91.9375 407.308594 91.867188 407.34375 91.796875 C 407.378906 91.726562 407.394531 91.65625 407.394531 91.585938 C 407.394531 91.230469 407.414062 90.878906 407.449219 90.523438 C 407.484375 90.171875 407.5 89.820312 407.5 89.464844 C 408.136719 85.292969 410.292969 81.496094 413.96875 78.066406 C 417.644531 74.636719 422.34375 72.925781 428.070312 72.925781 C 433.796875 72.925781 438.832031 74.65625 443.179688 78.121094 C 447.527344 81.582031 449.699219 87.0625 449.699219 94.554688 L 449.699219 96.039062 L 434.21875 96.039062 L 434.21875 94.023438 C 434.21875 91.550781 433.726562 89.640625 432.734375 88.296875 C 431.746094 86.957031 430.652344 86.105469 429.449219 85.753906 C 429.167969 85.683594 428.917969 85.628906 428.707031 85.59375 C 428.496094 85.558594 428.28125 85.542969 428.070312 85.542969 C 428 85.542969 427.949219 85.542969 427.910156 85.542969 C 427.875 85.542969 427.824219 85.542969 427.753906 85.542969 C 426.550781 85.613281 425.4375 86.140625 424.414062 87.132812 C 423.386719 88.121094 422.875 89.359375 422.875 90.84375 C 422.875 93.035156 423.636719 94.855469 425.15625 96.304688 C 426.675781 97.753906 428.53125 99.113281 430.722656 100.386719 C 431.570312 100.953125 432.472656 101.5 433.425781 102.027344 C 434.378906 102.558594 435.351562 103.105469 436.339844 103.671875 C 439.59375 105.582031 442.578125 108.039062 445.300781 111.042969 C 448.023438 114.046875 449.488281 118.304688 449.699219 123.816406 L 449.699219 125.621094 C 449.699219 133.960938 447.457031 139.667969 442.96875 142.746094 C 438.480469 145.820312 433.265625 147.355469 427.328125 147.355469 L 425.101562 147.464844 C 419.09375 147.109375 414.480469 145.09375 411.265625 141.417969 C 408.050781 137.742188 406.441406 132.546875 406.441406 125.832031 C 406.441406 125.480469 406.460938 125.125 406.496094 124.773438 C 406.53125 124.417969 406.546875 124.066406 406.546875 123.710938 C 406.546875 123.570312 406.546875 123.429688 406.546875 123.289062 C 406.546875 123.148438 406.546875 123.003906 406.546875 122.863281 C 406.617188 122.652344 406.652344 122.402344 406.652344 122.121094 C 406.652344 121.839844 406.652344 121.589844 406.652344 121.378906 " fill-opacity="1" fill-rule="nonzero"/></g><path fill="#fff200" d="M 467.40625 145.976562 L 467.40625 89.359375 L 454.152344 89.359375 L 454.152344 75.363281 L 497.199219 75.363281 L 497.199219 89.359375 L 484.6875 89.359375 L 484.6875 145.976562 L 467.40625 145.976562 " fill-opacity="1" fill-rule="nonzero"/><path fill="#fff200" d="M 503.136719 145.976562 L 503.136719 75.363281 L 542.472656 75.363281 L 542.472656 88.617188 L 520.101562 88.617188 L 520.101562 102.1875 L 540.988281 102.1875 L 540.988281 116.925781 L 520.101562 116.925781 L 520.101562 131.980469 L 542.472656 131.980469 L 542.472656 145.976562 L 503.136719 145.976562 " fill-opacity="1" fill-rule="nonzero"/><path fill="#fff200" d="M 550 145.976562 L 550 75.363281 L 574.703125 75.363281 C 580.570312 75.363281 585.308594 76.742188 588.914062 79.5 C 592.515625 82.253906 594.496094 86.777344 594.851562 93.070312 C 594.851562 97.59375 594.160156 101.339844 592.78125 104.308594 C 591.40625 107.277344 589.054688 109.503906 585.730469 110.988281 C 588.347656 111.695312 590.398438 112.789062 591.882812 114.277344 C 593.363281 115.761719 594.109375 117.632812 594.109375 119.894531 L 594.851562 137.074219 C 594.851562 139.6875 595.167969 141.453125 595.804688 142.375 C 596.441406 143.292969 597.113281 143.75 597.820312 143.75 L 597.820312 145.976562 L 582.761719 145.976562 C 580.570312 145.976562 579.15625 145.644531 578.523438 144.972656 C 577.886719 144.300781 577.566406 142.65625 577.566406 140.039062 L 577.566406 125.304688 C 577.566406 122.96875 577.109375 121.238281 576.191406 120.109375 C 575.269531 118.976562 573.539062 118.410156 570.992188 118.410156 L 567.070312 118.410156 L 567.070312 145.976562 Z M 567.070312 105.898438 L 570.992188 105.898438 C 572.621094 105.898438 574.121094 105.226562 575.5 103.886719 C 576.878906 102.542969 577.566406 100.351562 577.566406 97.3125 L 577.566406 95.296875 C 576.863281 91.195312 575.605469 88.8125 573.804688 88.140625 C 572 87.46875 569.757812 87.132812 567.070312 87.132812 L 567.070312 105.898438 " fill-opacity="1" fill-rule="nonzero"/><path fill="#fff200" d="M 178.367188 33.976562 L 175.667969 16.492188 L 179.390625 16.492188 L 180.410156 28.304688 L 182.160156 16.492188 L 185.710938 16.492188 L 187.292969 28.304688 L 188.484375 16.492188 L 192.082031 16.492188 L 189.335938 33.976562 L 185.03125 33.976562 L 183.863281 21.976562 L 182.5 33.976562 L 178.367188 33.976562 " fill-opacity="1" fill-rule="nonzero"/><path fill="#fff200" d="M 193.613281 33.976562 L 193.613281 16.492188 L 202.632812 16.492188 L 202.632812 19.773438 L 197.503906 19.773438 L 197.503906 23.132812 L 202.292969 23.132812 L 202.292969 26.78125 L 197.503906 26.78125 L 197.503906 30.511719 L 202.632812 30.511719 L 202.632812 33.976562 L 193.613281 33.976562 " fill-opacity="1" fill-rule="nonzero"/><path fill="#fff200" d="M 213.988281 33.976562 L 210.417969 16.492188 L 214.332031 16.492188 L 216.226562 28.488281 L 218.269531 16.492188 L 222.207031 16.492188 L 218.609375 33.976562 L 213.988281 33.976562 " fill-opacity="1" fill-rule="nonzero"/><path fill="#fff200" d="M 223.742188 33.976562 L 223.742188 16.492188 L 232.761719 16.492188 L 232.761719 19.773438 L 227.632812 19.773438 L 227.632812 23.132812 L 232.421875 23.132812 L 232.421875 26.78125 L 227.632812 26.78125 L 227.632812 30.511719 L 232.761719 30.511719 L 232.761719 33.976562 L 223.742188 33.976562 " fill-opacity="1" fill-rule="nonzero"/><path fill="#fff200" d="M 248.394531 33.976562 L 248.394531 19.957031 L 245.355469 19.957031 L 245.355469 16.492188 L 255.226562 16.492188 L 255.226562 19.957031 L 252.359375 19.957031 L 252.359375 33.976562 L 248.394531 33.976562 " fill-opacity="1" fill-rule="nonzero"/><path fill="#fff200" d="M 256.613281 28.671875 L 256.613281 20.875 C 256.613281 19.125 257.132812 17.886719 258.171875 17.160156 C 259.207031 16.433594 260.464844 16.070312 261.941406 16.070312 C 262.132812 16.070312 262.332031 16.082031 262.535156 16.097656 C 262.738281 16.117188 262.9375 16.132812 263.128906 16.152344 C 264.167969 16.308594 265.113281 16.738281 265.964844 17.4375 C 266.816406 18.136719 267.242188 19.285156 267.242188 20.875 L 267.242188 28.671875 C 267.242188 30.40625 266.816406 31.78125 265.964844 32.796875 C 265.113281 33.808594 263.714844 34.316406 261.769531 34.316406 C 259.792969 34.316406 258.4375 33.742188 257.710938 32.597656 C 256.980469 31.453125 256.613281 30.144531 256.613281 28.671875 Z M 260.53125 20.691406 L 260.53125 29.59375 C 260.53125 30.082031 260.671875 30.453125 260.957031 30.707031 C 261.238281 30.960938 261.550781 31.089844 261.890625 31.089844 C 261.90625 31.089844 261.917969 31.089844 261.925781 31.089844 C 261.9375 31.089844 261.949219 31.089844 261.964844 31.089844 C 262.289062 31.070312 262.589844 30.9375 262.863281 30.695312 C 263.140625 30.449219 263.277344 30.082031 263.277344 29.59375 L 263.277344 20.691406 C 263.277344 20.203125 263.140625 19.835938 262.863281 19.589844 C 262.589844 19.34375 262.289062 19.214844 261.964844 19.195312 C 261.949219 19.195312 261.9375 19.195312 261.925781 19.195312 C 261.917969 19.195312 261.90625 19.195312 261.890625 19.195312 C 261.550781 19.195312 261.238281 19.320312 260.957031 19.5625 C 260.671875 19.808594 260.53125 20.183594 260.53125 20.691406 " fill-opacity="1" fill-rule="nonzero"/><path fill="#fff200" d="M 269.039062 33.976562 L 269.039062 16.492188 L 273.683594 16.492188 C 275.96875 16.492188 277.511719 16.9375 278.304688 17.832031 C 279.097656 18.722656 279.496094 20.042969 279.496094 21.792969 C 279.496094 24.070312 278.960938 25.539062 277.890625 26.207031 C 276.820312 26.871094 275.554688 27.203125 274.097656 27.203125 C 274 27.203125 273.902344 27.199219 273.804688 27.191406 C 273.707031 27.179688 273.621094 27.175781 273.539062 27.175781 C 273.441406 27.175781 273.34375 27.171875 273.246094 27.164062 C 273.148438 27.15625 273.050781 27.148438 272.953125 27.148438 L 272.953125 33.976562 Z M 272.953125 24.054688 C 274.15625 24.054688 274.882812 23.820312 275.144531 23.355469 C 275.402344 22.894531 275.53125 22.1875 275.53125 21.242188 C 275.53125 20.632812 275.355469 20.203125 275.007812 19.957031 C 274.660156 19.710938 274.203125 19.589844 273.636719 19.589844 L 272.953125 19.589844 L 272.953125 24.054688 " fill-opacity="1" fill-rule="nonzero"/><path fill="#fff200" d="M 281.296875 33.976562 L 281.296875 16.492188 L 285.9375 16.492188 C 288.222656 16.492188 289.765625 16.9375 290.558594 17.832031 C 291.351562 18.722656 291.75 20.042969 291.75 21.792969 C 291.75 24.070312 291.214844 25.539062 290.144531 26.207031 C 289.074219 26.871094 287.8125 27.203125 286.351562 27.203125 C 286.253906 27.203125 286.15625 27.199219 286.058594 27.191406 C 285.964844 27.179688 285.875 27.175781 285.792969 27.175781 C 285.695312 27.175781 285.597656 27.171875 285.5 27.164062 C 285.40625 27.15625 285.308594 27.148438 285.210938 27.148438 L 285.210938 33.976562 Z M 285.210938 24.054688 C 286.410156 24.054688 287.140625 23.820312 287.398438 23.355469 C 287.65625 22.894531 287.785156 22.1875 287.785156 21.242188 C 287.785156 20.632812 287.613281 20.203125 287.265625 19.957031 C 286.914062 19.710938 286.457031 19.589844 285.890625 19.589844 L 285.210938 19.589844 L 285.210938 24.054688 " fill-opacity="1" fill-rule="nonzero"/><path fill="#fff200" d="M 293.355469 33.976562 L 293.355469 16.492188 L 302.375 16.492188 L 302.375 19.773438 L 297.246094 19.773438 L 297.246094 23.132812 L 302.035156 23.132812 L 302.035156 26.78125 L 297.246094 26.78125 L 297.246094 30.511719 L 302.375 30.511719 L 302.375 33.976562 L 293.355469 33.976562 " fill-opacity="1" fill-rule="nonzero"/><path fill="#fff200" d="M 304.273438 33.976562 L 304.273438 16.492188 L 308.746094 16.492188 C 310.871094 16.492188 312.371094 16.75 313.246094 17.265625 C 314.121094 17.78125 314.558594 18.863281 314.558594 20.507812 L 314.558594 29.777344 C 314.558594 31.054688 314.175781 32.074219 313.414062 32.835938 C 312.652344 33.59375 311.378906 33.976562 309.597656 33.976562 Z M 308.1875 30.878906 C 308.898438 30.878906 309.480469 30.777344 309.925781 30.578125 C 310.371094 30.375 310.59375 29.863281 310.59375 29.039062 L 310.59375 21.058594 C 310.59375 20.375 310.398438 19.933594 310.011719 19.734375 C 309.621094 19.53125 309.199219 19.421875 308.746094 19.40625 C 308.648438 19.40625 308.554688 19.40625 308.46875 19.40625 C 308.378906 19.40625 308.285156 19.40625 308.1875 19.40625 L 308.1875 30.878906 " fill-opacity="1" fill-rule="nonzero"/><path fill="#fff200" d="M 205.066406 14.285156 L 208.78125 14.285156 L 208.78125 18.039062 C 208.78125 19.375 208.472656 20.40625 207.855469 21.136719 C 207.238281 21.871094 206.3125 22.308594 205.066406 22.453125 L 205.066406 20.976562 C 205.738281 20.832031 206.230469 20.558594 206.546875 20.164062 C 206.859375 19.765625 207.019531 19.199219 207.035156 18.464844 L 205.066406 18.464844 L 205.066406 14.285156 " fill-opacity="1" fill-rule="nonzero"/><path fill="#fff200" d="M 327.351562 33.976562 L 327.351562 19.957031 L 324.039062 19.957031 L 324.039062 16.492188 L 334.804688 16.492188 L 334.804688 19.957031 L 331.675781 19.957031 L 331.675781 33.976562 L 327.351562 33.976562 " fill-opacity="1" fill-rule="nonzero"/><path fill="#fff200" d="M 336.132812 33.976562 L 336.132812 16.492188 L 340.402344 16.492188 L 340.402344 23.132812 L 343.214844 23.132812 L 343.214844 16.492188 L 347.535156 16.492188 L 347.535156 33.976562 L 343.214844 33.976562 L 343.214844 26.78125 L 340.402344 26.78125 L 340.402344 33.976562 L 336.132812 33.976562 " fill-opacity="1" fill-rule="nonzero"/><path fill="#fff200" d="M 349.660156 33.976562 L 349.660156 16.492188 L 359.5 16.492188 L 359.5 19.773438 L 353.902344 19.773438 L 353.902344 23.132812 L 359.128906 23.132812 L 359.128906 26.78125 L 353.902344 26.78125 L 353.902344 30.511719 L 359.5 30.511719 L 359.5 33.976562 L 349.660156 33.976562 " fill-opacity="1" fill-rule="nonzero"/><path fill="#fff200" d="M 361.726562 33.976562 L 361.726562 16.492188 L 367.695312 16.492188 L 369.738281 26.964844 L 371.9375 16.492188 L 377.722656 16.492188 L 377.722656 33.976562 L 373.847656 33.976562 L 374.21875 20.507812 L 371.195312 33.976562 L 368.253906 33.976562 L 365.230469 20.507812 L 365.785156 33.976562 L 361.726562 33.976562 " fill-opacity="1" fill-rule="nonzero"/><path fill="#fff200" d="M 391.75 33.976562 L 395.808594 16.492188 L 400.664062 16.492188 L 404.617188 33.976562 L 400.292969 33.976562 L 399.734375 30.511719 L 396.554688 30.511719 L 395.996094 33.976562 Z M 396.925781 27.335938 L 399.179688 27.335938 L 398.09375 19.589844 Z M 396.925781 27.335938 " fill-opacity="1" fill-rule="nonzero"/><path fill="#fff200" d="M 405.808594 33.976562 L 405.808594 16.492188 L 410.054688 16.492188 L 410.054688 30.511719 L 415.09375 30.511719 L 415.09375 33.976562 L 405.808594 33.976562 " fill-opacity="1" fill-rule="nonzero"/><path fill="#fff200" d="M 416.394531 33.976562 L 416.394531 16.492188 L 420.636719 16.492188 L 420.636719 30.511719 L 425.675781 30.511719 L 425.675781 33.976562 L 416.394531 33.976562 " fill-opacity="1" fill-rule="nonzero"/><path fill="#fff200" d="M 428.460938 33.976562 L 428.460938 29.960938 L 432.386719 29.960938 L 432.386719 33.976562 L 428.460938 33.976562 " fill-opacity="1" fill-rule="nonzero"/><path fill="#fff200" d="M 436.816406 33.976562 L 436.816406 29.960938 L 440.742188 29.960938 L 440.742188 33.976562 L 436.816406 33.976562 " fill-opacity="1" fill-rule="nonzero"/><path fill="#fff200" d="M 445.171875 33.976562 L 445.171875 29.960938 L 449.097656 29.960938 L 449.097656 33.976562 L 445.171875 33.976562 " fill-opacity="1" fill-rule="nonzero"/><path fill="#fff200" d="M 463.921875 27.886719 L 467.796875 27.886719 C 467.796875 27.921875 467.796875 27.957031 467.796875 27.992188 C 467.796875 28.027344 467.796875 28.0625 467.796875 28.097656 C 467.777344 28.128906 467.769531 28.167969 467.769531 28.214844 C 467.769531 28.257812 467.769531 28.296875 467.769531 28.332031 C 467.753906 28.402344 467.738281 28.472656 467.730469 28.542969 C 467.722656 28.613281 467.714844 28.671875 467.714844 28.726562 C 467.714844 29.511719 467.875 30.109375 468.195312 30.511719 C 468.511719 30.914062 468.867188 31.125 469.253906 31.140625 C 469.273438 31.140625 469.285156 31.140625 469.292969 31.140625 C 469.304688 31.140625 469.316406 31.140625 469.335938 31.140625 C 469.371094 31.140625 469.410156 31.140625 469.453125 31.140625 C 469.5 31.140625 469.539062 31.132812 469.574219 31.113281 C 469.890625 31.042969 470.179688 30.867188 470.433594 30.578125 C 470.691406 30.289062 470.820312 29.898438 470.820312 29.410156 C 470.820312 28.902344 470.648438 28.464844 470.300781 28.097656 C 469.957031 27.726562 469.53125 27.378906 469.015625 27.046875 C 468.769531 26.871094 468.511719 26.703125 468.246094 26.546875 C 467.980469 26.390625 467.714844 26.214844 467.453125 26.023438 C 466.601562 25.480469 465.824219 24.804688 465.117188 24 C 464.410156 23.195312 464.054688 22.109375 464.054688 20.746094 C 464.054688 20.726562 464.0625 20.710938 464.070312 20.691406 C 464.078125 20.675781 464.082031 20.648438 464.082031 20.613281 C 464.082031 20.597656 464.085938 20.578125 464.097656 20.558594 C 464.105469 20.542969 464.109375 20.527344 464.109375 20.507812 C 464.109375 20.421875 464.113281 20.332031 464.125 20.246094 C 464.132812 20.15625 464.136719 20.070312 464.136719 19.984375 C 464.292969 18.949219 464.832031 18.011719 465.753906 17.160156 C 466.671875 16.3125 467.847656 15.886719 469.28125 15.886719 C 470.714844 15.886719 471.972656 16.316406 473.0625 17.175781 C 474.148438 18.03125 474.691406 19.386719 474.691406 21.242188 L 474.691406 21.609375 L 470.820312 21.609375 L 470.820312 21.113281 C 470.820312 20.5 470.695312 20.027344 470.449219 19.695312 C 470.203125 19.363281 469.925781 19.152344 469.625 19.066406 C 469.554688 19.046875 469.492188 19.035156 469.441406 19.023438 C 469.386719 19.015625 469.335938 19.011719 469.28125 19.011719 C 469.265625 19.011719 469.25 19.011719 469.242188 19.011719 C 469.234375 19.011719 469.21875 19.011719 469.203125 19.011719 C 468.902344 19.03125 468.621094 19.160156 468.367188 19.40625 C 468.109375 19.652344 467.980469 19.957031 467.980469 20.324219 C 467.980469 20.867188 468.171875 21.316406 468.550781 21.675781 C 468.933594 22.035156 469.398438 22.371094 469.945312 22.6875 C 470.15625 22.828125 470.382812 22.960938 470.621094 23.09375 C 470.859375 23.226562 471.101562 23.359375 471.351562 23.5 C 472.164062 23.972656 472.910156 24.582031 473.59375 25.324219 C 474.273438 26.070312 474.640625 27.125 474.691406 28.488281 L 474.691406 28.933594 C 474.691406 31 474.132812 32.414062 473.007812 33.175781 C 471.886719 33.9375 470.582031 34.316406 469.097656 34.316406 L 468.539062 34.34375 C 467.035156 34.257812 465.882812 33.757812 465.078125 32.847656 C 464.273438 31.9375 463.871094 30.652344 463.871094 28.988281 C 463.871094 28.902344 463.875 28.8125 463.882812 28.726562 C 463.890625 28.636719 463.898438 28.550781 463.898438 28.464844 C 463.898438 28.429688 463.898438 28.394531 463.898438 28.359375 C 463.898438 28.324219 463.898438 28.289062 463.898438 28.253906 C 463.914062 28.199219 463.921875 28.140625 463.921875 28.070312 C 463.921875 28 463.921875 27.9375 463.921875 27.886719 " fill-opacity="1" fill-rule="nonzero"/><path fill="#fff200" d="M 476.628906 33.976562 L 476.628906 16.492188 L 480.898438 16.492188 L 480.898438 33.976562 L 476.628906 33.976562 " fill-opacity="1" fill-rule="nonzero"/><path fill="#fff200" d="M 483.074219 33.976562 L 483.074219 16.492188 L 487.34375 16.492188 L 490.714844 26.597656 L 490.15625 16.492188 L 494.292969 16.492188 L 494.292969 33.976562 L 489.96875 33.976562 L 486.601562 24.238281 L 487.160156 33.976562 L 483.074219 33.976562 " fill-opacity="1" fill-rule="nonzero"/><path fill="#fff200" d="M 503.523438 26.964844 L 507.847656 26.964844 L 507.847656 29.777344 C 507.847656 31.105469 507.425781 32.113281 506.585938 32.796875 C 505.746094 33.476562 504.824219 33.921875 503.816406 34.132812 C 503.515625 34.203125 503.214844 34.253906 502.914062 34.277344 C 502.613281 34.304688 502.332031 34.316406 502.066406 34.316406 C 500.085938 34.316406 498.621094 33.878906 497.675781 33.003906 C 496.730469 32.128906 496.257812 30.6875 496.257812 28.671875 L 496.257812 20.875 C 496.257812 19.492188 496.683594 18.316406 497.542969 17.34375 C 498.402344 16.375 499.90625 15.886719 502.066406 15.886719 C 503.816406 15.886719 505.21875 16.3125 506.269531 17.160156 C 507.320312 18.011719 507.847656 19.308594 507.847656 21.058594 L 507.847656 22.582031 L 503.339844 22.582031 L 503.339844 20.324219 C 503.339844 19.972656 503.210938 19.699219 502.953125 19.5 C 502.695312 19.296875 502.410156 19.179688 502.09375 19.144531 C 502.074219 19.144531 502.050781 19.144531 502.023438 19.144531 C 502 19.144531 501.976562 19.144531 501.960938 19.144531 C 501.941406 19.144531 501.917969 19.144531 501.890625 19.144531 C 501.867188 19.144531 501.84375 19.144531 501.828125 19.144531 C 501.488281 19.179688 501.191406 19.304688 500.925781 19.523438 C 500.660156 19.742188 500.527344 20.070312 500.527344 20.507812 L 500.527344 29.777344 C 500.527344 30.179688 500.660156 30.507812 500.925781 30.761719 C 501.191406 31.015625 501.488281 31.15625 501.828125 31.195312 C 501.84375 31.195312 501.867188 31.195312 501.890625 31.195312 C 501.917969 31.195312 501.941406 31.195312 501.960938 31.195312 C 501.992188 31.195312 502.03125 31.195312 502.066406 31.195312 C 502.101562 31.195312 502.125 31.183594 502.144531 31.167969 C 502.5 31.132812 502.816406 30.964844 503.097656 30.667969 C 503.382812 30.371094 503.523438 29.949219 503.523438 29.410156 L 503.523438 26.964844 " fill-opacity="1" fill-rule="nonzero"/><path fill="#fff200" d="M 509.785156 33.976562 L 509.785156 16.492188 L 519.625 16.492188 L 519.625 19.773438 L 514.027344 19.773438 L 514.027344 23.132812 L 519.253906 23.132812 L 519.253906 26.78125 L 514.027344 26.78125 L 514.027344 30.511719 L 519.625 30.511719 L 519.625 33.976562 L 509.785156 33.976562 " fill-opacity="1" fill-rule="nonzero"/><path fill="#fff200" d="M 537.421875 33.976562 L 537.421875 22.160156 L 533.734375 22.160156 L 533.734375 19.40625 C 533.789062 19.40625 533.835938 19.410156 533.878906 19.417969 C 533.925781 19.429688 533.972656 19.433594 534.027344 19.433594 C 534.0625 19.433594 534.101562 19.4375 534.144531 19.445312 C 534.191406 19.453125 534.238281 19.457031 534.292969 19.457031 C 535.351562 19.457031 536.285156 19.226562 537.089844 18.761719 C 537.894531 18.300781 538.375 17.664062 538.535156 16.859375 L 541.375 16.859375 L 541.375 33.976562 L 537.421875 33.976562 " fill-opacity="1" fill-rule="nonzero"/><path fill="#fff200" d="M 551.769531 26.964844 C 551.558594 27.300781 551.207031 27.589844 550.710938 27.832031 C 550.214844 28.078125 549.683594 28.199219 549.117188 28.199219 C 549.011719 28.199219 548.90625 28.195312 548.800781 28.1875 C 548.695312 28.179688 548.597656 28.164062 548.507812 28.148438 C 547.695312 28.007812 546.949219 27.554688 546.265625 26.78125 C 545.585938 26.011719 545.246094 24.796875 545.246094 23.132812 C 545.246094 21 545.539062 19.308594 546.121094 18.066406 C 546.707031 16.824219 548.011719 16.160156 550.046875 16.070312 L 550.417969 16.070312 C 552.308594 16.070312 553.621094 16.566406 554.34375 17.554688 C 555.070312 18.542969 555.484375 19.632812 555.589844 20.824219 C 555.609375 20.980469 555.621094 21.144531 555.628906 21.308594 C 555.640625 21.476562 555.644531 21.636719 555.644531 21.792969 L 555.644531 29.410156 C 555.644531 30.859375 555.21875 32.042969 554.371094 32.953125 C 553.519531 33.863281 552.203125 34.316406 550.417969 34.316406 C 548.933594 34.316406 547.730469 33.992188 546.8125 33.347656 C 545.890625 32.699219 545.433594 31.507812 545.433594 29.777344 L 549.304688 29.777344 C 549.304688 29.777344 549.304688 29.789062 549.304688 29.816406 C 549.304688 29.839844 549.304688 29.863281 549.304688 29.882812 C 549.285156 29.898438 549.277344 29.921875 549.277344 29.945312 C 549.277344 29.972656 549.277344 29.984375 549.277344 29.984375 C 549.277344 30.421875 549.402344 30.765625 549.648438 31.011719 C 549.894531 31.253906 550.171875 31.378906 550.472656 31.378906 C 550.507812 31.378906 550.539062 31.378906 550.5625 31.378906 C 550.589844 31.378906 550.621094 31.367188 550.65625 31.351562 C 550.941406 31.300781 551.195312 31.140625 551.425781 30.878906 C 551.65625 30.617188 551.769531 30.25 551.769531 29.777344 Z M 550.417969 25.128906 C 551.089844 25.128906 551.515625 24.789062 551.691406 24.105469 C 551.867188 23.421875 551.957031 22.652344 551.957031 21.792969 C 551.957031 20.78125 551.824219 20.066406 551.558594 19.65625 C 551.292969 19.242188 550.914062 19.039062 550.417969 19.039062 C 549.957031 19.039062 549.625 19.296875 549.425781 19.8125 C 549.21875 20.328125 549.117188 21.050781 549.117188 21.976562 C 549.117188 23.011719 549.199219 23.792969 549.355469 24.328125 C 549.515625 24.863281 549.871094 25.128906 550.417969 25.128906 " fill-opacity="1" fill-rule="nonzero"/><path fill="#fff200" d="M 559.332031 24.578125 C 558.570312 24.402344 557.980469 23.96875 557.566406 23.277344 C 557.152344 22.585938 556.941406 21.820312 556.941406 20.980469 C 556.941406 20.859375 556.949219 20.742188 556.957031 20.625 C 556.964844 20.511719 556.976562 20.394531 556.996094 20.273438 C 557.136719 19.222656 557.613281 18.257812 558.429688 17.382812 C 559.242188 16.511719 560.410156 16.070312 561.929688 16.070312 L 562.167969 16.070312 C 563.8125 16.070312 565.066406 16.511719 565.933594 17.382812 C 566.800781 18.257812 567.304688 19.222656 567.445312 20.273438 C 567.464844 20.394531 567.476562 20.511719 567.484375 20.625 C 567.496094 20.742188 567.5 20.859375 567.5 20.980469 C 567.5 21.785156 567.296875 22.539062 566.890625 23.238281 C 566.484375 23.9375 565.898438 24.382812 565.140625 24.578125 C 565.191406 24.59375 565.246094 24.617188 565.296875 24.644531 C 565.351562 24.671875 565.394531 24.699219 565.429688 24.734375 C 566.085938 25.066406 566.597656 25.488281 566.96875 25.996094 C 567.339844 26.503906 567.527344 27.457031 567.527344 28.855469 C 567.527344 30.765625 567.050781 32.152344 566.09375 33.019531 C 565.140625 33.886719 563.8125 34.316406 562.113281 34.316406 C 560.363281 34.316406 559.066406 33.902344 558.214844 33.070312 C 557.367188 32.238281 556.941406 30.773438 556.941406 28.671875 C 556.941406 27.535156 557.160156 26.660156 557.59375 26.046875 C 558.027344 25.433594 558.605469 24.945312 559.332031 24.578125 Z M 562.113281 31.429688 C 562.785156 31.429688 563.210938 31.207031 563.390625 30.761719 C 563.566406 30.3125 563.652344 29.679688 563.652344 28.855469 C 563.652344 27.824219 563.519531 27.097656 563.257812 26.679688 C 562.992188 26.257812 562.609375 26.046875 562.113281 26.046875 C 561.566406 26.046875 561.214844 26.28125 561.054688 26.742188 C 560.894531 27.207031 560.816406 27.910156 560.816406 28.855469 C 560.816406 29.59375 560.894531 30.203125 561.054688 30.695312 C 561.214844 31.183594 561.566406 31.429688 562.113281 31.429688 Z M 562.113281 23.316406 C 562.609375 23.316406 562.992188 23.15625 563.257812 22.832031 C 563.519531 22.507812 563.652344 21.917969 563.652344 21.058594 C 563.652344 20.414062 563.519531 19.914062 563.257812 19.5625 C 562.992188 19.214844 562.609375 19.039062 562.113281 19.039062 C 561.65625 19.039062 561.324219 19.242188 561.121094 19.65625 C 560.917969 20.066406 560.816406 20.597656 560.816406 21.242188 C 560.816406 21.910156 560.941406 22.421875 561.1875 22.777344 C 561.433594 23.136719 561.742188 23.316406 562.113281 23.316406 " fill-opacity="1" fill-rule="nonzero"/><path fill="#fff200" d="M 572.511719 33.976562 L 572.511719 22.160156 L 568.824219 22.160156 L 568.824219 19.40625 C 568.878906 19.40625 568.925781 19.410156 568.972656 19.417969 C 569.015625 19.429688 569.066406 19.433594 569.117188 19.433594 C 569.152344 19.433594 569.191406 19.4375 569.238281 19.445312 C 569.28125 19.453125 569.328125 19.457031 569.382812 19.457031 C 570.445312 19.457031 571.375 19.226562 572.179688 18.761719 C 572.984375 18.300781 573.46875 17.664062 573.625 16.859375 L 576.464844 16.859375 L 576.464844 33.976562 L 572.511719 33.976562 " fill-opacity="1" fill-rule="nonzero"/></svg>