<svg xmlns="http://www.w3.org/2000/svg" xmlns:xlink="http://www.w3.org/1999/xlink" width="895" zoomAndPan="magnify" viewBox="0 0 671.25 147.750002" height="197" preserveAspectRatio="xMidYMid meet" version="1.0"><defs><clipPath id="c2e00f552b"><path d="M 0.191406 3 L 57 3 L 57 61 L 0.191406 61 Z M 0.191406 3 " clip-rule="nonzero"/></clipPath><clipPath id="dc634a1b53"><path d="M 11 0 L 670.308594 0 L 670.308594 146 L 11 146 Z M 11 0 " clip-rule="nonzero"/></clipPath><clipPath id="ce9deb0fab"><path d="M 127 73 L 174 73 L 174 147.464844 L 127 147.464844 Z M 127 73 " clip-rule="nonzero"/></clipPath><clipPath id="ce10f8f444"><path d="M 180 73 L 228 73 L 228 147.464844 L 180 147.464844 Z M 180 73 " clip-rule="nonzero"/></clipPath><clipPath id="3edcee2139"><path d="M 406 72 L 450 72 L 450 147.464844 L 406 147.464844 Z M 406 72 " clip-rule="nonzero"/></clipPath></defs><g clip-path="url(#c2e00f552b)"><path fill="#000068" d="M 26.371094 60.695312 L 30.804688 60.695312 L 30.667969 46.589844 L 44.21875 50.046875 L 42.699219 44.792969 L 56.867188 32.570312 C 57.203125 31.851562 53.902344 32.167969 53.136719 31.277344 C 52.125 30.125 55.828125 23.628906 55.523438 23.410156 C 55.265625 23.175781 48.039062 25.464844 47.675781 25.15625 C 47.210938 24.707031 45.988281 20.445312 45.671875 20.246094 C 45.421875 20.023438 38.519531 27.371094 37.304688 26.539062 C 35.761719 25.515625 39.230469 12.113281 38.515625 11.8125 L 34.332031 13.300781 C 33.535156 13.367188 30.390625 6.628906 28.59375 3.445312 L 28.589844 3.453125 L 28.585938 3.445312 C 26.789062 6.628906 23.640625 13.367188 22.847656 13.300781 L 18.664062 11.8125 C 17.949219 12.113281 21.417969 25.515625 19.875 26.539062 C 18.65625 27.371094 11.753906 20.023438 11.507812 20.246094 C 11.191406 20.445312 9.964844 24.707031 9.503906 25.15625 C 9.140625 25.464844 1.914062 23.175781 1.65625 23.410156 C 1.351562 23.628906 5.054688 30.125 4.039062 31.277344 C 3.273438 32.167969 -0.0234375 31.851562 0.308594 32.570312 L 14.480469 44.792969 L 12.960938 50.046875 L 26.511719 46.589844 L 26.371094 60.695312 " fill-opacity="1" fill-rule="evenodd"/></g><g clip-path="url(#dc634a1b53)"><path fill="#000068" d="M 39.132812 116.207031 L 39.132812 145.542969 L 58.628906 145.542969 L 58.628906 99.390625 C 52.921875 99.390625 46.542969 99.21875 40.578125 99.21875 L 108.949219 26.496094 L 151.246094 60.84375 L 151.246094 60.929688 L 151.351562 60.929688 L 151.628906 61.15625 L 151.722656 60.929688 L 612.976562 60.929688 L 612.976562 144.78125 L 621.894531 144.78125 L 621.894531 129.859375 L 644.46875 129.859375 L 644.46875 144.78125 L 653.386719 144.78125 L 653.386719 60.929688 L 670.214844 60.929688 L 670.214844 41.433594 L 653.386719 41.433594 L 653.386719 12.304688 L 644.46875 12.304688 L 644.46875 26.308594 L 621.894531 26.308594 L 621.894531 12.304688 L 612.976562 12.304688 L 612.976562 41.433594 L 158.269531 41.433594 L 107.621094 0.300781 L 107.585938 0.339844 L 107.136719 -0.0390625 L 11.441406 101.742188 L 11.453125 116.207031 Z M 621.894531 60.929688 L 644.46875 60.929688 L 644.46875 70.265625 L 621.894531 70.265625 Z M 644.46875 41.433594 L 621.894531 41.433594 L 621.894531 31.941406 L 644.46875 31.941406 Z M 644.46875 124.226562 L 644.46875 111.609375 L 621.894531 111.609375 L 621.894531 124.226562 Z M 644.46875 105.976562 L 644.46875 94.152344 L 621.894531 94.152344 L 621.894531 105.976562 Z M 644.46875 88.519531 L 644.46875 75.898438 L 621.894531 75.898438 L 621.894531 88.519531 L 644.46875 88.519531 " fill-opacity="1" fill-rule="evenodd"/></g><path fill="#000068" d="M 73.933594 145.976562 L 73.933594 75.363281 L 98.640625 75.363281 C 104.507812 75.363281 109.242188 76.742188 112.847656 79.5 C 116.453125 82.253906 118.433594 86.777344 118.785156 93.070312 C 118.785156 97.59375 118.097656 101.339844 116.71875 104.308594 C 115.339844 107.277344 112.988281 109.503906 109.667969 110.988281 C 112.28125 111.695312 114.332031 112.789062 115.816406 114.277344 C 117.300781 115.761719 118.042969 117.632812 118.042969 119.894531 L 118.785156 137.074219 C 118.785156 139.6875 119.105469 141.453125 119.738281 142.375 C 120.375 143.292969 121.046875 143.75 121.753906 143.75 L 121.753906 145.976562 L 106.699219 145.976562 C 104.507812 145.976562 103.09375 145.644531 102.457031 144.972656 C 101.820312 144.300781 101.503906 142.65625 101.503906 140.039062 L 101.503906 125.304688 C 101.503906 122.96875 101.042969 121.238281 100.125 120.109375 C 99.207031 118.976562 97.472656 118.410156 94.929688 118.410156 L 91.003906 118.410156 L 91.003906 145.976562 Z M 91.003906 105.898438 L 94.929688 105.898438 C 96.554688 105.898438 98.058594 105.226562 99.433594 103.886719 C 100.8125 102.542969 101.503906 100.351562 101.503906 97.3125 L 101.503906 95.296875 C 100.796875 91.195312 99.542969 88.8125 97.738281 88.140625 C 95.9375 87.46875 93.691406 87.132812 91.003906 87.132812 L 91.003906 105.898438 " fill-opacity="1" fill-rule="nonzero"/><g clip-path="url(#ce9deb0fab)"><path fill="#000068" d="M 127.375 124.5625 L 127.375 93.070312 C 127.375 86 129.636719 81 134.160156 78.066406 C 138.683594 75.132812 144.160156 73.667969 150.59375 73.667969 C 151.441406 73.667969 152.308594 73.703125 153.191406 73.773438 C 154.074219 73.84375 154.941406 73.914062 155.789062 73.984375 C 160.3125 74.621094 164.429688 76.351562 168.140625 79.179688 C 171.855469 82.007812 173.707031 86.636719 173.707031 93.070312 L 173.707031 124.5625 C 173.707031 131.558594 171.855469 137.109375 168.140625 141.207031 C 164.429688 145.304688 158.335938 147.355469 149.851562 147.355469 C 141.226562 147.355469 135.328125 145.042969 132.144531 140.410156 C 128.964844 135.78125 127.375 130.5 127.375 124.5625 Z M 144.445312 92.328125 L 144.445312 128.273438 C 144.445312 130.25 145.0625 131.753906 146.300781 132.777344 C 147.539062 133.800781 148.898438 134.316406 150.382812 134.316406 C 150.453125 134.316406 150.503906 134.316406 150.542969 134.316406 C 150.578125 134.316406 150.628906 134.316406 150.699219 134.316406 C 152.113281 134.246094 153.421875 133.714844 154.625 132.726562 C 155.824219 131.734375 156.425781 130.25 156.425781 128.273438 L 156.425781 92.328125 C 156.425781 90.347656 155.824219 88.863281 154.625 87.875 C 153.421875 86.882812 152.113281 86.355469 150.699219 86.285156 C 150.628906 86.285156 150.578125 86.285156 150.542969 86.285156 C 150.503906 86.285156 150.453125 86.285156 150.382812 86.285156 C 148.898438 86.285156 147.539062 86.777344 146.300781 87.769531 C 145.0625 88.757812 144.445312 90.277344 144.445312 92.328125 " fill-opacity="1" fill-rule="nonzero"/></g><g clip-path="url(#ce10f8f444)"><path fill="#000068" d="M 180.8125 124.5625 L 180.8125 93.070312 C 180.8125 86 183.074219 81 187.597656 78.066406 C 192.121094 75.132812 197.601562 73.667969 204.035156 73.667969 C 204.882812 73.667969 205.746094 73.703125 206.632812 73.773438 C 207.515625 73.84375 208.378906 73.914062 209.226562 73.984375 C 213.753906 74.621094 217.871094 76.351562 221.582031 79.179688 C 225.292969 82.007812 227.148438 86.636719 227.148438 93.070312 L 227.148438 124.5625 C 227.148438 131.558594 225.292969 137.109375 221.582031 141.207031 C 217.871094 145.304688 211.773438 147.355469 203.289062 147.355469 C 194.667969 147.355469 188.765625 145.042969 185.585938 140.410156 C 182.402344 135.78125 180.8125 130.5 180.8125 124.5625 Z M 197.882812 92.328125 L 197.882812 128.273438 C 197.882812 130.25 198.503906 131.753906 199.738281 132.777344 C 200.976562 133.800781 202.335938 134.316406 203.820312 134.316406 C 203.890625 134.316406 203.945312 134.316406 203.980469 134.316406 C 204.015625 134.316406 204.070312 134.316406 204.140625 134.316406 C 205.554688 134.246094 206.859375 133.714844 208.0625 132.726562 C 209.265625 131.734375 209.863281 130.25 209.863281 128.273438 L 209.863281 92.328125 C 209.863281 90.347656 209.265625 88.863281 208.0625 87.875 C 206.859375 86.882812 205.554688 86.355469 204.140625 86.285156 C 204.070312 86.285156 204.015625 86.285156 203.980469 86.285156 C 203.945312 86.285156 203.890625 86.285156 203.820312 86.285156 C 202.335938 86.285156 200.976562 86.777344 199.738281 87.769531 C 198.503906 88.757812 197.882812 90.277344 197.882812 92.328125 " fill-opacity="1" fill-rule="nonzero"/></g><path fill="#000068" d="M 234.886719 145.976562 L 234.886719 75.363281 L 274.222656 75.363281 L 274.222656 88.617188 L 251.851562 88.617188 L 251.851562 101.445312 L 271.996094 101.445312 L 271.996094 115.441406 L 251.851562 115.441406 L 251.851562 145.976562 L 234.886719 145.976562 " fill-opacity="1" fill-rule="nonzero"/><path fill="#000068" d="M 282.386719 145.976562 L 282.386719 75.363281 L 306.246094 75.363281 L 314.410156 117.667969 L 323.210938 75.363281 L 346.324219 75.363281 L 346.324219 145.976562 L 330.84375 145.976562 L 332.328125 91.585938 L 320.242188 145.976562 L 308.472656 145.976562 L 296.386719 91.585938 L 298.613281 145.976562 L 282.390625 145.976562 " fill-opacity="1" fill-rule="nonzero"/><path fill="#000068" d="M 352.6875 145.976562 L 368.910156 75.363281 L 388.3125 75.363281 L 404.109375 145.976562 L 386.828125 145.976562 L 384.601562 131.980469 L 371.878906 131.980469 L 369.652344 145.976562 Z M 373.363281 119.152344 L 382.375 119.152344 L 378.027344 87.875 Z M 373.363281 119.152344 " fill-opacity="1" fill-rule="nonzero"/><g clip-path="url(#3edcee2139)"><path fill="#000068" d="M 406.65625 121.378906 L 422.136719 121.378906 C 422.136719 121.519531 422.136719 121.664062 422.136719 121.804688 C 422.136719 121.945312 422.136719 122.085938 422.136719 122.226562 C 422.066406 122.367188 422.03125 122.527344 422.03125 122.703125 C 422.03125 122.882812 422.03125 123.039062 422.03125 123.183594 C 421.960938 123.464844 421.90625 123.75 421.871094 124.03125 C 421.835938 124.3125 421.816406 124.5625 421.816406 124.773438 C 421.816406 127.953125 422.453125 130.355469 423.726562 131.980469 C 425 133.609375 426.414062 134.457031 427.96875 134.527344 C 428.039062 134.527344 428.089844 134.527344 428.125 134.527344 C 428.160156 134.527344 428.214844 134.527344 428.285156 134.527344 C 428.425781 134.527344 428.585938 134.527344 428.761719 134.527344 C 428.941406 134.527344 429.097656 134.492188 429.242188 134.421875 C 430.511719 134.140625 431.660156 133.414062 432.6875 132.246094 C 433.710938 131.082031 434.222656 129.507812 434.222656 127.53125 C 434.222656 125.480469 433.535156 123.710938 432.15625 122.226562 C 430.777344 120.742188 429.0625 119.328125 427.015625 117.988281 C 426.023438 117.28125 425 116.609375 423.9375 115.972656 C 422.878906 115.335938 421.816406 114.628906 420.757812 113.851562 C 417.363281 111.660156 414.253906 108.9375 411.425781 105.6875 C 408.597656 102.4375 407.1875 98.054688 407.1875 92.539062 C 407.1875 92.46875 407.203125 92.398438 407.238281 92.328125 C 407.273438 92.257812 407.292969 92.152344 407.292969 92.007812 C 407.292969 91.9375 407.308594 91.867188 407.34375 91.796875 C 407.378906 91.726562 407.398438 91.65625 407.398438 91.585938 C 407.398438 91.230469 407.414062 90.878906 407.453125 90.523438 C 407.484375 90.171875 407.503906 89.820312 407.503906 89.464844 C 408.140625 85.292969 410.296875 81.496094 413.972656 78.066406 C 417.648438 74.636719 422.347656 72.925781 428.074219 72.925781 C 433.800781 72.925781 438.835938 74.65625 443.183594 78.121094 C 447.53125 81.582031 449.703125 87.0625 449.703125 94.554688 L 449.703125 96.039062 L 434.222656 96.039062 L 434.222656 94.023438 C 434.222656 91.550781 433.726562 89.640625 432.738281 88.296875 C 431.75 86.957031 430.652344 86.105469 429.453125 85.753906 C 429.167969 85.683594 428.921875 85.628906 428.710938 85.59375 C 428.496094 85.558594 428.285156 85.542969 428.074219 85.542969 C 428.003906 85.542969 427.949219 85.542969 427.914062 85.542969 C 427.878906 85.542969 427.828125 85.542969 427.753906 85.542969 C 426.554688 85.613281 425.441406 86.140625 424.414062 87.132812 C 423.390625 88.121094 422.878906 89.359375 422.878906 90.84375 C 422.878906 93.035156 423.636719 94.855469 425.15625 96.304688 C 426.675781 97.753906 428.535156 99.113281 430.722656 100.386719 C 431.574219 100.953125 432.472656 101.5 433.429688 102.027344 C 434.382812 102.558594 435.355469 103.105469 436.34375 103.671875 C 439.59375 105.582031 442.582031 108.039062 445.304688 111.042969 C 448.023438 114.046875 449.492188 118.304688 449.703125 123.816406 L 449.703125 125.621094 C 449.703125 133.960938 447.460938 139.667969 442.972656 142.746094 C 438.480469 145.820312 433.269531 147.355469 427.332031 147.355469 L 425.105469 147.464844 C 419.097656 147.109375 414.484375 145.09375 411.269531 141.417969 C 408.050781 137.742188 406.445312 132.546875 406.445312 125.832031 C 406.445312 125.480469 406.460938 125.125 406.496094 124.773438 C 406.53125 124.417969 406.550781 124.066406 406.550781 123.710938 C 406.550781 123.570312 406.550781 123.429688 406.550781 123.289062 C 406.550781 123.148438 406.550781 123.003906 406.550781 122.863281 C 406.621094 122.652344 406.65625 122.402344 406.65625 122.121094 C 406.65625 121.839844 406.65625 121.589844 406.65625 121.378906 " fill-opacity="1" fill-rule="nonzero"/></g><path fill="#000068" d="M 467.410156 145.976562 L 467.410156 89.359375 L 454.15625 89.359375 L 454.15625 75.363281 L 497.203125 75.363281 L 497.203125 89.359375 L 484.691406 89.359375 L 484.691406 145.976562 L 467.410156 145.976562 " fill-opacity="1" fill-rule="nonzero"/><path fill="#000068" d="M 503.140625 145.976562 L 503.140625 75.363281 L 542.480469 75.363281 L 542.480469 88.617188 L 520.105469 88.617188 L 520.105469 102.1875 L 540.996094 102.1875 L 540.996094 116.925781 L 520.105469 116.925781 L 520.105469 131.980469 L 542.480469 131.980469 L 542.480469 145.976562 L 503.140625 145.976562 " fill-opacity="1" fill-rule="nonzero"/><path fill="#000068" d="M 550.007812 145.976562 L 550.007812 75.363281 L 574.710938 75.363281 C 580.578125 75.363281 585.316406 76.742188 588.921875 79.5 C 592.523438 82.253906 594.503906 86.777344 594.859375 93.070312 C 594.859375 97.59375 594.167969 101.339844 592.789062 104.308594 C 591.414062 107.277344 589.0625 109.503906 585.738281 110.988281 C 588.355469 111.695312 590.40625 112.789062 591.890625 114.277344 C 593.375 115.761719 594.117188 117.632812 594.117188 119.894531 L 594.859375 137.074219 C 594.859375 139.6875 595.175781 141.453125 595.8125 142.375 C 596.449219 143.292969 597.121094 143.75 597.828125 143.75 L 597.828125 145.976562 L 582.769531 145.976562 C 580.578125 145.976562 579.164062 145.644531 578.527344 144.972656 C 577.894531 144.300781 577.574219 142.65625 577.574219 140.039062 L 577.574219 125.304688 C 577.574219 122.96875 577.117188 121.238281 576.195312 120.109375 C 575.277344 118.976562 573.546875 118.410156 571 118.410156 L 567.078125 118.410156 L 567.078125 145.976562 Z M 567.078125 105.898438 L 571 105.898438 C 572.628906 105.898438 574.128906 105.226562 575.507812 103.886719 C 576.886719 102.542969 577.574219 100.351562 577.574219 97.3125 L 577.574219 95.296875 C 576.867188 91.195312 575.613281 88.8125 573.8125 88.140625 C 572.007812 87.46875 569.765625 87.132812 567.078125 87.132812 L 567.078125 105.898438 " fill-opacity="1" fill-rule="nonzero"/><path fill="#000068" d="M 178.363281 33.976562 L 175.664062 16.492188 L 179.386719 16.492188 L 180.40625 28.304688 L 182.15625 16.492188 L 185.707031 16.492188 L 187.289062 28.304688 L 188.480469 16.492188 L 192.078125 16.492188 L 189.332031 33.976562 L 185.027344 33.976562 L 183.859375 21.976562 L 182.496094 33.976562 L 178.363281 33.976562 " fill-opacity="1" fill-rule="nonzero"/><path fill="#000068" d="M 193.609375 33.976562 L 193.609375 16.492188 L 202.628906 16.492188 L 202.628906 19.773438 L 197.5 19.773438 L 197.5 23.132812 L 202.289062 23.132812 L 202.289062 26.78125 L 197.5 26.78125 L 197.5 30.511719 L 202.628906 30.511719 L 202.628906 33.976562 L 193.609375 33.976562 " fill-opacity="1" fill-rule="nonzero"/><path fill="#000068" d="M 213.984375 33.976562 L 210.414062 16.492188 L 214.328125 16.492188 L 216.222656 28.488281 L 218.265625 16.492188 L 222.207031 16.492188 L 218.605469 33.976562 L 213.984375 33.976562 " fill-opacity="1" fill-rule="nonzero"/><path fill="#000068" d="M 223.738281 33.976562 L 223.738281 16.492188 L 232.757812 16.492188 L 232.757812 19.773438 L 227.628906 19.773438 L 227.628906 23.132812 L 232.417969 23.132812 L 232.417969 26.78125 L 227.628906 26.78125 L 227.628906 30.511719 L 232.757812 30.511719 L 232.757812 33.976562 L 223.738281 33.976562 " fill-opacity="1" fill-rule="nonzero"/><path fill="#000068" d="M 248.394531 33.976562 L 248.394531 19.957031 L 245.355469 19.957031 L 245.355469 16.492188 L 255.226562 16.492188 L 255.226562 19.957031 L 252.355469 19.957031 L 252.355469 33.976562 L 248.394531 33.976562 " fill-opacity="1" fill-rule="nonzero"/><path fill="#000068" d="M 256.613281 28.671875 L 256.613281 20.875 C 256.613281 19.125 257.132812 17.886719 258.167969 17.160156 C 259.207031 16.433594 260.460938 16.070312 261.9375 16.070312 C 262.132812 16.070312 262.332031 16.082031 262.535156 16.097656 C 262.734375 16.117188 262.933594 16.132812 263.128906 16.152344 C 264.167969 16.308594 265.109375 16.738281 265.960938 17.4375 C 266.8125 18.136719 267.238281 19.285156 267.238281 20.875 L 267.238281 28.671875 C 267.238281 30.40625 266.8125 31.78125 265.960938 32.796875 C 265.109375 33.808594 263.710938 34.316406 261.769531 34.316406 C 259.789062 34.316406 258.4375 33.742188 257.707031 32.597656 C 256.976562 31.453125 256.613281 30.144531 256.613281 28.671875 Z M 260.527344 20.691406 L 260.527344 29.59375 C 260.527344 30.082031 260.667969 30.453125 260.953125 30.707031 C 261.238281 30.960938 261.546875 31.089844 261.886719 31.089844 C 261.90625 31.089844 261.917969 31.089844 261.925781 31.089844 C 261.933594 31.089844 261.945312 31.089844 261.960938 31.089844 C 262.285156 31.070312 262.585938 30.9375 262.863281 30.695312 C 263.136719 30.449219 263.277344 30.082031 263.277344 29.59375 L 263.277344 20.691406 C 263.277344 20.203125 263.136719 19.835938 262.863281 19.589844 C 262.585938 19.34375 262.285156 19.214844 261.960938 19.195312 C 261.945312 19.195312 261.933594 19.195312 261.925781 19.195312 C 261.917969 19.195312 261.90625 19.195312 261.886719 19.195312 C 261.546875 19.195312 261.238281 19.320312 260.953125 19.5625 C 260.667969 19.808594 260.527344 20.183594 260.527344 20.691406 " fill-opacity="1" fill-rule="nonzero"/><path fill="#000068" d="M 269.039062 33.976562 L 269.039062 16.492188 L 273.683594 16.492188 C 275.96875 16.492188 277.507812 16.9375 278.300781 17.832031 C 279.097656 18.722656 279.496094 20.042969 279.496094 21.792969 C 279.496094 24.070312 278.957031 25.539062 277.886719 26.207031 C 276.820312 26.871094 275.554688 27.203125 274.09375 27.203125 C 274 27.203125 273.902344 27.199219 273.804688 27.191406 C 273.707031 27.179688 273.617188 27.175781 273.535156 27.175781 C 273.441406 27.175781 273.339844 27.171875 273.246094 27.164062 C 273.148438 27.15625 273.050781 27.148438 272.953125 27.148438 L 272.953125 33.976562 Z M 272.953125 24.054688 C 274.152344 24.054688 274.882812 23.820312 275.140625 23.355469 C 275.402344 22.894531 275.53125 22.1875 275.53125 21.242188 C 275.53125 20.632812 275.355469 20.203125 275.007812 19.957031 C 274.660156 19.710938 274.203125 19.589844 273.632812 19.589844 L 272.953125 19.589844 L 272.953125 24.054688 " fill-opacity="1" fill-rule="nonzero"/><path fill="#000068" d="M 281.292969 33.976562 L 281.292969 16.492188 L 285.9375 16.492188 C 288.222656 16.492188 289.761719 16.9375 290.558594 17.832031 C 291.351562 18.722656 291.75 20.042969 291.75 21.792969 C 291.75 24.070312 291.214844 25.539062 290.144531 26.207031 C 289.074219 26.871094 287.808594 27.203125 286.351562 27.203125 C 286.253906 27.203125 286.15625 27.199219 286.058594 27.191406 C 285.960938 27.179688 285.871094 27.175781 285.792969 27.175781 C 285.695312 27.175781 285.597656 27.171875 285.5 27.164062 C 285.402344 27.15625 285.304688 27.148438 285.207031 27.148438 L 285.207031 33.976562 Z M 285.207031 24.054688 C 286.40625 24.054688 287.136719 23.820312 287.394531 23.355469 C 287.65625 22.894531 287.785156 22.1875 287.785156 21.242188 C 287.785156 20.632812 287.613281 20.203125 287.261719 19.957031 C 286.914062 19.710938 286.457031 19.589844 285.890625 19.589844 L 285.207031 19.589844 L 285.207031 24.054688 " fill-opacity="1" fill-rule="nonzero"/><path fill="#000068" d="M 293.355469 33.976562 L 293.355469 16.492188 L 302.375 16.492188 L 302.375 19.773438 L 297.246094 19.773438 L 297.246094 23.132812 L 302.035156 23.132812 L 302.035156 26.78125 L 297.246094 26.78125 L 297.246094 30.511719 L 302.375 30.511719 L 302.375 33.976562 L 293.355469 33.976562 " fill-opacity="1" fill-rule="nonzero"/><path fill="#000068" d="M 304.273438 33.976562 L 304.273438 16.492188 L 308.746094 16.492188 C 310.871094 16.492188 312.367188 16.75 313.246094 17.265625 C 314.121094 17.78125 314.558594 18.863281 314.558594 20.507812 L 314.558594 29.777344 C 314.558594 31.054688 314.175781 32.074219 313.414062 32.835938 C 312.652344 33.59375 311.378906 33.976562 309.597656 33.976562 Z M 308.1875 30.878906 C 308.898438 30.878906 309.480469 30.777344 309.925781 30.578125 C 310.371094 30.375 310.59375 29.863281 310.59375 29.039062 L 310.59375 21.058594 C 310.59375 20.375 310.398438 19.933594 310.011719 19.734375 C 309.621094 19.53125 309.199219 19.421875 308.746094 19.40625 C 308.648438 19.40625 308.554688 19.40625 308.464844 19.40625 C 308.378906 19.40625 308.285156 19.40625 308.1875 19.40625 L 308.1875 30.878906 " fill-opacity="1" fill-rule="nonzero"/><path fill="#000068" d="M 205.0625 14.285156 L 208.777344 14.285156 L 208.777344 18.039062 C 208.777344 19.375 208.46875 20.40625 207.851562 21.136719 C 207.234375 21.871094 206.308594 22.308594 205.0625 22.453125 L 205.0625 20.976562 C 205.734375 20.832031 206.226562 20.558594 206.542969 20.164062 C 206.855469 19.765625 207.015625 19.199219 207.03125 18.464844 L 205.0625 18.464844 L 205.0625 14.285156 " fill-opacity="1" fill-rule="nonzero"/><path fill="#000068" d="M 327.351562 33.976562 L 327.351562 19.957031 L 324.035156 19.957031 L 324.035156 16.492188 L 334.804688 16.492188 L 334.804688 19.957031 L 331.675781 19.957031 L 331.675781 33.976562 L 327.351562 33.976562 " fill-opacity="1" fill-rule="nonzero"/><path fill="#000068" d="M 336.132812 33.976562 L 336.132812 16.492188 L 340.402344 16.492188 L 340.402344 23.132812 L 343.214844 23.132812 L 343.214844 16.492188 L 347.539062 16.492188 L 347.539062 33.976562 L 343.214844 33.976562 L 343.214844 26.78125 L 340.402344 26.78125 L 340.402344 33.976562 L 336.132812 33.976562 " fill-opacity="1" fill-rule="nonzero"/><path fill="#000068" d="M 349.660156 33.976562 L 349.660156 16.492188 L 359.5 16.492188 L 359.5 19.773438 L 353.902344 19.773438 L 353.902344 23.132812 L 359.128906 23.132812 L 359.128906 26.78125 L 353.902344 26.78125 L 353.902344 30.511719 L 359.5 30.511719 L 359.5 33.976562 L 349.660156 33.976562 " fill-opacity="1" fill-rule="nonzero"/><path fill="#000068" d="M 361.726562 33.976562 L 361.726562 16.492188 L 367.695312 16.492188 L 369.738281 26.964844 L 371.941406 16.492188 L 377.722656 16.492188 L 377.722656 33.976562 L 373.851562 33.976562 L 374.222656 20.507812 L 371.199219 33.976562 L 368.253906 33.976562 L 365.230469 20.507812 L 365.785156 33.976562 L 361.726562 33.976562 " fill-opacity="1" fill-rule="nonzero"/><path fill="#000068" d="M 391.753906 33.976562 L 395.8125 16.492188 L 400.667969 16.492188 L 404.617188 33.976562 L 400.296875 33.976562 L 399.738281 30.511719 L 396.554688 30.511719 L 395.996094 33.976562 Z M 396.925781 27.335938 L 399.179688 27.335938 L 398.09375 19.589844 Z M 396.925781 27.335938 " fill-opacity="1" fill-rule="nonzero"/><path fill="#000068" d="M 405.8125 33.976562 L 405.8125 16.492188 L 410.054688 16.492188 L 410.054688 30.511719 L 415.09375 30.511719 L 415.09375 33.976562 L 405.8125 33.976562 " fill-opacity="1" fill-rule="nonzero"/><path fill="#000068" d="M 416.394531 33.976562 L 416.394531 16.492188 L 420.640625 16.492188 L 420.640625 30.511719 L 425.679688 30.511719 L 425.679688 33.976562 L 416.394531 33.976562 " fill-opacity="1" fill-rule="nonzero"/><path fill="#000068" d="M 428.464844 33.976562 L 428.464844 29.960938 L 432.390625 29.960938 L 432.390625 33.976562 L 428.464844 33.976562 " fill-opacity="1" fill-rule="nonzero"/><path fill="#000068" d="M 436.820312 33.976562 L 436.820312 29.960938 L 440.746094 29.960938 L 440.746094 33.976562 L 436.820312 33.976562 " fill-opacity="1" fill-rule="nonzero"/><path fill="#000068" d="M 445.175781 33.976562 L 445.175781 29.960938 L 449.101562 29.960938 L 449.101562 33.976562 L 445.175781 33.976562 " fill-opacity="1" fill-rule="nonzero"/><path fill="#000068" d="M 463.925781 27.886719 L 467.800781 27.886719 C 467.800781 27.921875 467.800781 27.957031 467.800781 27.992188 C 467.800781 28.027344 467.800781 28.0625 467.800781 28.097656 C 467.78125 28.128906 467.773438 28.167969 467.773438 28.214844 C 467.773438 28.257812 467.773438 28.296875 467.773438 28.332031 C 467.757812 28.402344 467.742188 28.472656 467.734375 28.542969 C 467.726562 28.613281 467.71875 28.671875 467.71875 28.726562 C 467.71875 29.511719 467.878906 30.109375 468.199219 30.511719 C 468.515625 30.914062 468.871094 31.125 469.257812 31.140625 C 469.277344 31.140625 469.289062 31.140625 469.300781 31.140625 C 469.308594 31.140625 469.320312 31.140625 469.339844 31.140625 C 469.375 31.140625 469.414062 31.140625 469.457031 31.140625 C 469.503906 31.140625 469.542969 31.132812 469.578125 31.113281 C 469.894531 31.042969 470.183594 30.867188 470.4375 30.578125 C 470.695312 30.289062 470.824219 29.898438 470.824219 29.410156 C 470.824219 28.902344 470.652344 28.464844 470.304688 28.097656 C 469.960938 27.726562 469.535156 27.378906 469.019531 27.046875 C 468.773438 26.871094 468.515625 26.703125 468.25 26.546875 C 467.984375 26.390625 467.71875 26.214844 467.457031 26.023438 C 466.605469 25.480469 465.828125 24.804688 465.121094 24 C 464.414062 23.195312 464.058594 22.109375 464.058594 20.746094 C 464.058594 20.726562 464.066406 20.710938 464.074219 20.691406 C 464.082031 20.675781 464.085938 20.648438 464.085938 20.613281 C 464.085938 20.597656 464.089844 20.578125 464.101562 20.558594 C 464.109375 20.542969 464.113281 20.527344 464.113281 20.507812 C 464.113281 20.421875 464.117188 20.332031 464.128906 20.246094 C 464.136719 20.15625 464.140625 20.070312 464.140625 19.984375 C 464.296875 18.949219 464.839844 18.011719 465.757812 17.160156 C 466.675781 16.3125 467.851562 15.886719 469.285156 15.886719 C 470.71875 15.886719 471.976562 16.316406 473.066406 17.175781 C 474.152344 18.03125 474.695312 19.386719 474.695312 21.242188 L 474.695312 21.609375 L 470.824219 21.609375 L 470.824219 21.113281 C 470.824219 20.5 470.699219 20.027344 470.453125 19.695312 C 470.207031 19.363281 469.929688 19.152344 469.628906 19.066406 C 469.558594 19.046875 469.496094 19.035156 469.445312 19.023438 C 469.390625 19.015625 469.339844 19.011719 469.285156 19.011719 C 469.269531 19.011719 469.253906 19.011719 469.246094 19.011719 C 469.238281 19.011719 469.222656 19.011719 469.207031 19.011719 C 468.90625 19.03125 468.628906 19.160156 468.371094 19.40625 C 468.113281 19.652344 467.984375 19.957031 467.984375 20.324219 C 467.984375 20.867188 468.175781 21.316406 468.554688 21.675781 C 468.9375 22.035156 469.402344 22.371094 469.949219 22.6875 C 470.160156 22.828125 470.386719 22.960938 470.625 23.09375 C 470.863281 23.226562 471.105469 23.359375 471.355469 23.5 C 472.167969 23.972656 472.914062 24.582031 473.597656 25.324219 C 474.277344 26.070312 474.644531 27.125 474.695312 28.488281 L 474.695312 28.933594 C 474.695312 31 474.136719 32.414062 473.011719 33.175781 C 471.890625 33.9375 470.585938 34.316406 469.101562 34.316406 L 468.542969 34.34375 C 467.039062 34.257812 465.886719 33.757812 465.082031 32.847656 C 464.277344 31.9375 463.875 30.652344 463.875 28.988281 C 463.875 28.902344 463.878906 28.8125 463.886719 28.726562 C 463.894531 28.636719 463.902344 28.550781 463.902344 28.464844 C 463.902344 28.429688 463.902344 28.394531 463.902344 28.359375 C 463.902344 28.324219 463.902344 28.289062 463.902344 28.253906 C 463.917969 28.199219 463.925781 28.140625 463.925781 28.070312 C 463.925781 28 463.925781 27.9375 463.925781 27.886719 " fill-opacity="1" fill-rule="nonzero"/><path fill="#000068" d="M 476.632812 33.976562 L 476.632812 16.492188 L 480.902344 16.492188 L 480.902344 33.976562 L 476.632812 33.976562 " fill-opacity="1" fill-rule="nonzero"/><path fill="#000068" d="M 483.078125 33.976562 L 483.078125 16.492188 L 487.347656 16.492188 L 490.71875 26.597656 L 490.160156 16.492188 L 494.296875 16.492188 L 494.296875 33.976562 L 489.976562 33.976562 L 486.605469 24.238281 L 487.164062 33.976562 L 483.078125 33.976562 " fill-opacity="1" fill-rule="nonzero"/><path fill="#000068" d="M 503.527344 26.964844 L 507.851562 26.964844 L 507.851562 29.777344 C 507.851562 31.105469 507.433594 32.113281 506.59375 32.796875 C 505.753906 33.476562 504.828125 33.921875 503.820312 34.132812 C 503.519531 34.203125 503.21875 34.253906 502.917969 34.277344 C 502.617188 34.304688 502.335938 34.316406 502.070312 34.316406 C 500.089844 34.316406 498.625 33.878906 497.679688 33.003906 C 496.734375 32.128906 496.261719 30.6875 496.261719 28.671875 L 496.261719 20.875 C 496.261719 19.492188 496.691406 18.316406 497.546875 17.34375 C 498.40625 16.375 499.914062 15.886719 502.070312 15.886719 C 503.820312 15.886719 505.222656 16.3125 506.273438 17.160156 C 507.328125 18.011719 507.851562 19.308594 507.851562 21.058594 L 507.851562 22.582031 L 503.34375 22.582031 L 503.34375 20.324219 C 503.34375 19.972656 503.214844 19.699219 502.957031 19.5 C 502.703125 19.296875 502.414062 19.179688 502.097656 19.144531 C 502.078125 19.144531 502.058594 19.144531 502.03125 19.144531 C 502.003906 19.144531 501.980469 19.144531 501.964844 19.144531 C 501.945312 19.144531 501.925781 19.144531 501.898438 19.144531 C 501.871094 19.144531 501.847656 19.144531 501.832031 19.144531 C 501.496094 19.179688 501.195312 19.304688 500.929688 19.523438 C 500.664062 19.742188 500.53125 20.070312 500.53125 20.507812 L 500.53125 29.777344 C 500.53125 30.179688 500.664062 30.507812 500.929688 30.761719 C 501.195312 31.015625 501.496094 31.15625 501.832031 31.195312 C 501.847656 31.195312 501.871094 31.195312 501.898438 31.195312 C 501.925781 31.195312 501.945312 31.195312 501.964844 31.195312 C 502 31.195312 502.035156 31.195312 502.070312 31.195312 C 502.105469 31.195312 502.132812 31.183594 502.148438 31.167969 C 502.503906 31.132812 502.820312 30.964844 503.105469 30.667969 C 503.386719 30.371094 503.527344 29.949219 503.527344 29.410156 L 503.527344 26.964844 " fill-opacity="1" fill-rule="nonzero"/><path fill="#000068" d="M 509.789062 33.976562 L 509.789062 16.492188 L 519.628906 16.492188 L 519.628906 19.773438 L 514.03125 19.773438 L 514.03125 23.132812 L 519.257812 23.132812 L 519.257812 26.78125 L 514.03125 26.78125 L 514.03125 30.511719 L 519.628906 30.511719 L 519.628906 33.976562 L 509.789062 33.976562 " fill-opacity="1" fill-rule="nonzero"/><path fill="#000068" d="M 537.429688 33.976562 L 537.429688 22.160156 L 533.742188 22.160156 L 533.742188 19.40625 C 533.792969 19.40625 533.84375 19.410156 533.886719 19.417969 C 533.929688 19.429688 533.980469 19.433594 534.03125 19.433594 C 534.066406 19.433594 534.105469 19.4375 534.152344 19.445312 C 534.195312 19.453125 534.246094 19.457031 534.296875 19.457031 C 535.359375 19.457031 536.292969 19.226562 537.097656 18.761719 C 537.898438 18.300781 538.382812 17.664062 538.542969 16.859375 L 541.378906 16.859375 L 541.378906 33.976562 L 537.429688 33.976562 " fill-opacity="1" fill-rule="nonzero"/><path fill="#000068" d="M 551.777344 26.964844 C 551.566406 27.300781 551.210938 27.589844 550.714844 27.832031 C 550.222656 28.078125 549.691406 28.199219 549.125 28.199219 C 549.019531 28.199219 548.914062 28.195312 548.804688 28.1875 C 548.699219 28.179688 548.605469 28.164062 548.515625 28.148438 C 547.703125 28.007812 546.953125 27.554688 546.273438 26.78125 C 545.59375 26.011719 545.253906 24.796875 545.253906 23.132812 C 545.253906 21 545.542969 19.308594 546.128906 18.066406 C 546.710938 16.824219 548.019531 16.160156 550.054688 16.070312 L 550.425781 16.070312 C 552.316406 16.070312 553.625 16.566406 554.351562 17.554688 C 555.074219 18.542969 555.492188 19.632812 555.597656 20.824219 C 555.613281 20.980469 555.628906 21.144531 555.636719 21.308594 C 555.644531 21.476562 555.648438 21.636719 555.648438 21.792969 L 555.648438 29.410156 C 555.648438 30.859375 555.226562 32.042969 554.375 32.953125 C 553.527344 33.863281 552.210938 34.316406 550.425781 34.316406 C 548.9375 34.316406 547.738281 33.992188 546.816406 33.347656 C 545.898438 32.699219 545.4375 31.507812 545.4375 29.777344 L 549.308594 29.777344 C 549.308594 29.777344 549.308594 29.789062 549.308594 29.816406 C 549.308594 29.839844 549.308594 29.863281 549.308594 29.882812 C 549.292969 29.898438 549.285156 29.921875 549.285156 29.945312 C 549.285156 29.972656 549.285156 29.984375 549.285156 29.984375 C 549.285156 30.421875 549.410156 30.765625 549.65625 31.011719 C 549.902344 31.253906 550.175781 31.378906 550.476562 31.378906 C 550.511719 31.378906 550.542969 31.378906 550.570312 31.378906 C 550.597656 31.378906 550.628906 31.367188 550.664062 31.351562 C 550.945312 31.300781 551.203125 31.140625 551.433594 30.878906 C 551.664062 30.617188 551.777344 30.25 551.777344 29.777344 Z M 550.425781 25.128906 C 551.097656 25.128906 551.519531 24.789062 551.699219 24.105469 C 551.875 23.421875 551.964844 22.652344 551.964844 21.792969 C 551.964844 20.78125 551.832031 20.066406 551.566406 19.65625 C 551.300781 19.242188 550.921875 19.039062 550.425781 19.039062 C 549.964844 19.039062 549.632812 19.296875 549.429688 19.8125 C 549.226562 20.328125 549.125 21.050781 549.125 21.976562 C 549.125 23.011719 549.203125 23.792969 549.363281 24.328125 C 549.523438 24.863281 549.875 25.128906 550.425781 25.128906 " fill-opacity="1" fill-rule="nonzero"/><path fill="#000068" d="M 559.335938 24.578125 C 558.578125 24.402344 557.988281 23.96875 557.574219 23.277344 C 557.15625 22.585938 556.949219 21.820312 556.949219 20.980469 C 556.949219 20.859375 556.953125 20.742188 556.960938 20.625 C 556.972656 20.511719 556.984375 20.394531 557.003906 20.273438 C 557.144531 19.222656 557.621094 18.257812 558.433594 17.382812 C 559.25 16.511719 560.414062 16.070312 561.9375 16.070312 L 562.175781 16.070312 C 563.820312 16.070312 565.074219 16.511719 565.941406 17.382812 C 566.808594 18.257812 567.3125 19.222656 567.453125 20.273438 C 567.472656 20.394531 567.484375 20.511719 567.492188 20.625 C 567.503906 20.742188 567.507812 20.859375 567.507812 20.980469 C 567.507812 21.785156 567.304688 22.539062 566.894531 23.238281 C 566.488281 23.9375 565.90625 24.382812 565.144531 24.578125 C 565.199219 24.59375 565.25 24.617188 565.304688 24.644531 C 565.359375 24.671875 565.402344 24.699219 565.4375 24.734375 C 566.089844 25.066406 566.605469 25.488281 566.976562 25.996094 C 567.347656 26.503906 567.535156 27.457031 567.535156 28.855469 C 567.535156 30.765625 567.054688 32.152344 566.101562 33.019531 C 565.144531 33.886719 563.820312 34.316406 562.121094 34.316406 C 560.371094 34.316406 559.070312 33.902344 558.222656 33.070312 C 557.375 32.238281 556.949219 30.773438 556.949219 28.671875 C 556.949219 27.535156 557.167969 26.660156 557.601562 26.046875 C 558.03125 25.433594 558.613281 24.945312 559.335938 24.578125 Z M 562.121094 31.429688 C 562.792969 31.429688 563.21875 31.207031 563.394531 30.761719 C 563.574219 30.3125 563.660156 29.679688 563.660156 28.855469 C 563.660156 27.824219 563.527344 27.097656 563.261719 26.679688 C 562.996094 26.257812 562.617188 26.046875 562.121094 26.046875 C 561.574219 26.046875 561.21875 26.28125 561.0625 26.742188 C 560.902344 27.207031 560.824219 27.914062 560.824219 28.855469 C 560.824219 29.59375 560.902344 30.203125 561.0625 30.695312 C 561.21875 31.183594 561.574219 31.429688 562.121094 31.429688 Z M 562.121094 23.316406 C 562.617188 23.316406 562.996094 23.15625 563.261719 22.832031 C 563.527344 22.507812 563.660156 21.917969 563.660156 21.058594 C 563.660156 20.414062 563.527344 19.914062 563.261719 19.5625 C 562.996094 19.214844 562.617188 19.039062 562.121094 19.039062 C 561.664062 19.039062 561.332031 19.242188 561.128906 19.65625 C 560.925781 20.066406 560.824219 20.597656 560.824219 21.242188 C 560.824219 21.910156 560.945312 22.421875 561.195312 22.777344 C 561.441406 23.136719 561.75 23.316406 562.121094 23.316406 " fill-opacity="1" fill-rule="nonzero"/><path fill="#000068" d="M 572.519531 33.976562 L 572.519531 22.160156 L 568.832031 22.160156 L 568.832031 19.40625 C 568.886719 19.40625 568.933594 19.410156 568.980469 19.417969 C 569.023438 19.429688 569.070312 19.433594 569.125 19.433594 C 569.160156 19.433594 569.199219 19.4375 569.242188 19.445312 C 569.289062 19.453125 569.335938 19.457031 569.390625 19.457031 C 570.449219 19.457031 571.382812 19.226562 572.1875 18.761719 C 572.992188 18.300781 573.476562 17.664062 573.632812 16.859375 L 576.472656 16.859375 L 576.472656 33.976562 L 572.519531 33.976562 " fill-opacity="1" fill-rule="nonzero"/></svg>